<svg xmlns="http://www.w3.org/2000/svg" viewBox="0 0 420 315"><rect width="420" height="315" fill="#F7EED3"/><path d="M210 275 C205 210 215 150 205 70" stroke="#38523B" stroke-width="5" fill="none"/><path d="M205 125 C150 95 115 105 92 138 C134 155 173 155 205 125Z" fill="#7C9473" stroke="#38523B" stroke-width="3"/><path d="M211 155 C270 125 310 132 333 170 C288 186 247 184 211 155Z" fill="#8CA681" stroke="#38523B" stroke-width="3"/><path d="M208 205 C150 178 110 190 88 226 C134 242 174 238 208 205Z" fill="#748E6A" stroke="#38523B" stroke-width="3"/><g fill="#B8924A"><circle cx="205" cy="62" r="7"/><circle cx="219" cy="67" r="5"/><circle cx="194" cy="72" r="5"/></g></svg>

