<svg xmlns="http://www.w3.org/2000/svg" viewBox="0 0 420 315"><rect width="420" height="315" fill="#F7EED3"/><path d="M210 278 C220 220 215 165 205 118" stroke="#38523B" stroke-width="5" fill="none"/><g fill="#7C9473" stroke="#38523B" stroke-width="2.5"><path d="M208 190 C165 165 130 172 110 205 C148 220 181 215 208 190Z"/><path d="M214 218 C260 190 298 198 318 232 C276 246 240 241 214 218Z"/></g><g transform="translate(210 95)"><path d="M0 -48 C28 -58 52 -34 44 -8 C72 -2 78 35 48 48 C36 78 -2 72 -10 46 C-42 62 -74 38 -58 6 C-80 -22 -52 -58 -18 -44Z" fill="#C77482" stroke="#7A2E2E" stroke-width="3"/><circle cx="0" cy="5" r="10" fill="#B8924A"/></g><text x="28" y="285" fill="#6C4D17" font-family="Georgia" font-size="22">Rosa</text></svg>

